<svg width="24" height="24" viewBox="0 0 24 24" fill="none" xmlns="http://www.w3.org/2000/svg">
    <path d="M19.6875 9.96875C18.9375 10.5625 17.3125 11.75 14.875 13.5L14.5625 13.75C14.0625 14.125 13.6875 14.4062 13.375 14.5625C12.875 14.875 12.4062 15 12 15C11.5625 15 11.125 14.875 10.625 14.5938C10.3125 14.4375 9.9375 14.1562 9.4375 13.7812L9.125 13.5C6.59375 11.6875 5 10.5 4.3125 9.96875C4.25 9.9375 4.15625 9.9375 4.09375 9.96875C4.03125 10 4 10.0625 4 10.125V16.5C4 16.9375 4.125 17.2812 4.4375 17.5625C4.71875 17.875 5.0625 18 5.5 18H18.5C18.9062 18 19.25 17.875 19.5625 17.5625C19.8438 17.2812 20 16.9375 20 16.5V10.125C20 10.0625 19.9375 10 19.875 9.9375C19.8125 9.90625 19.75 9.90625 19.6875 9.96875ZM12 14C11.7188 14 11.375 13.875 11 13.625C10.75 13.5 10.4375 13.2812 10.0312 12.9375L9.71875 12.7188C7.15625 10.8438 5.40625 9.5625 4.5 8.84375L4.28125 8.6875C4.09375 8.5625 4 8.34375 4 8.09375V7.5C4 7.09375 4.125 6.75 4.4375 6.4375C4.71875 6.15625 5.0625 6 5.5 6H18.5C18.9062 6 19.25 6.15625 19.5625 6.4375C19.8438 6.75 20 7.09375 20 7.5V8.09375C20 8.34375 19.9062 8.5625 19.7188 8.6875L19.5625 8.8125C18.6562 9.53125 16.9062 10.8438 14.2812 12.7188L13.9688 12.9375C13.5312 13.2812 13.2188 13.5 13 13.625C12.5938 13.875 12.25 14 12 14Z" fill="#C1C9CD"/>
</svg>