<svg width="24" height="24" viewBox="0 0 24 24" fill="none" xmlns="http://www.w3.org/2000/svg">
    <path d="M11.0547 22.2148C11.2188 22.502 11.5059 22.625 11.875 22.625C12.2031 22.625 12.4902 22.502 12.6953 22.2148L15.4434 18.2773C16.7969 16.3086 17.6992 14.9961 18.1504 14.2988C18.7656 13.3145 19.1758 12.4941 19.4219 11.8379C19.627 11.1816 19.75 10.4023 19.75 9.5C19.75 8.10547 19.3809 6.79297 18.6836 5.5625C17.9453 4.37305 17.002 3.42969 15.8125 2.69141C14.582 1.99414 13.2695 1.625 11.875 1.625C10.4395 1.625 9.12695 1.99414 7.9375 2.69141C6.70703 3.42969 5.76367 4.37305 5.06641 5.5625C4.32812 6.79297 4 8.10547 4 9.5C4 10.4023 4.08203 11.1816 4.32812 11.8379C4.5332 12.4941 4.94336 13.3145 5.59961 14.2988C6.00977 14.9961 6.91211 16.3086 8.30664 18.2773C9.41406 19.877 10.3164 21.1895 11.0547 22.2148ZM11.875 12.7812C10.9727 12.7812 10.1934 12.4941 9.53711 11.8379C8.88086 11.1816 8.59375 10.4023 8.59375 9.5C8.59375 8.59766 8.88086 7.85938 9.53711 7.20312C10.1934 6.54688 10.9727 6.21875 11.875 6.21875C12.7773 6.21875 13.5156 6.54688 14.1719 7.20312C14.8281 7.85938 15.1562 8.59766 15.1562 9.5C15.1562 10.4023 14.8281 11.1816 14.1719 11.8379C13.5156 12.4941 12.7773 12.7812 11.875 12.7812Z" fill="#C1C9CD"/>
</svg>