<svg width="24" height="24" viewBox="0 0 24 24" fill="none" xmlns="http://www.w3.org/2000/svg">
    <path d="M19.4062 4.78125C19.5938 4.8125 19.7188 4.90625 19.8438 5.03125C19.9375 5.1875 20 5.34375 20 5.5C20 8.125 19.3438 10.5625 18.0312 12.8125C16.7188 15 15 16.75 12.8125 18.0312C10.5625 19.3438 8.125 20 5.5 20C5.3125 20 5.15625 19.9688 5.03125 19.8438C4.875 19.75 4.78125 19.5938 4.78125 19.4062L4.03125 16.1562C3.96875 16 4 15.8438 4.09375 15.6562C4.15625 15.5 4.28125 15.375 4.46875 15.3125L7.96875 13.8125C8.09375 13.75 8.25 13.75 8.4375 13.7812C8.59375 13.8125 8.71875 13.9062 8.84375 14.0312L10.375 15.9062C11.5938 15.3438 12.6875 14.5938 13.625 13.625C14.5625 12.6875 15.3438 11.5938 15.9062 10.375L14.0312 8.8125C13.9062 8.71875 13.8125 8.59375 13.7812 8.4375C13.7188 8.28125 13.75 8.125 13.8125 7.9375L15.3125 4.4375C15.375 4.3125 15.4688 4.1875 15.6562 4.09375C15.8125 4.03125 15.9688 4 16.1562 4.03125L19.4062 4.78125Z" fill="#C1C9CD"/>
</svg>