<svg width="24" height="24" viewBox="0 0 24 24" fill="none" xmlns="http://www.w3.org/2000/svg">
    <path d="M18.9414 13.7969C19.4688 14.5 19.75 15.3086 19.75 16.1875C19.75 16.8906 19.5742 17.5586 19.2227 18.1562C18.8711 18.7891 18.3789 19.2461 17.7812 19.5977C17.1484 19.9492 16.5156 20.125 15.8125 20.125C14.8984 20.125 14.125 19.8789 13.4219 19.3164C12.8945 19.4219 12.3672 19.457 11.875 19.457C10.5391 19.457 9.34375 19.1406 8.25391 18.5078C7.12891 17.875 6.25 16.9961 5.61719 15.8711C4.98438 14.7812 4.66797 13.5859 4.66797 12.25C4.66797 11.7578 4.70312 11.2656 4.80859 10.7031C4.24609 10 4 9.22656 4 8.3125C4 7.60938 4.17578 6.97656 4.52734 6.34375C4.87891 5.74609 5.33594 5.25391 5.96875 4.90234C6.56641 4.55078 7.23438 4.375 7.9375 4.375C8.81641 4.375 9.625 4.65625 10.3281 5.18359C10.8203 5.11328 11.3477 5.04297 11.875 5.04297C13.1758 5.04297 14.3711 5.39453 15.4961 6.02734C16.5859 6.66016 17.4648 7.53906 18.0977 8.62891C18.7305 9.75391 19.082 10.9492 19.082 12.25C19.082 12.7422 19.0117 13.2695 18.9414 13.7969ZM12.0859 16.9961C13.1406 16.9961 14.0195 16.75 14.793 16.2578C15.6016 15.6953 16.0234 14.957 16.0234 13.9727C16.0234 13.1992 15.6719 12.5312 14.9688 12.0391C14.4766 11.7227 13.7383 11.4414 12.8242 11.2305L12.2617 11.125C11.5234 10.9492 11.0664 10.8086 10.8555 10.7031C10.5391 10.5625 10.3984 10.3516 10.3984 10.0703C10.3984 9.57812 10.8906 9.29688 11.875 9.29688C12.2617 9.29688 12.6133 9.36719 12.9297 9.50781C13.0703 9.61328 13.2812 9.75391 13.5625 9.96484C13.7031 10.1758 13.8438 10.2812 13.9844 10.3164C14.125 10.4219 14.3008 10.457 14.5117 10.457C14.8281 10.457 15.0742 10.3516 15.2852 10.1406C15.4961 9.92969 15.6016 9.68359 15.6016 9.33203C15.6016 8.76953 15.1797 8.3125 14.3711 7.92578C13.5977 7.57422 12.6836 7.39844 11.6641 7.39844C10.6445 7.39844 9.80078 7.60938 9.09766 8.03125C8.25391 8.55859 7.86719 9.29688 7.86719 10.2461C7.86719 10.9141 8.00781 11.4414 8.35938 11.8281C8.60547 12.1797 9.02734 12.4609 9.625 12.6719C9.97656 12.8125 10.5742 12.9883 11.418 13.1641L12.1211 13.3398C12.6133 13.4805 12.9648 13.5859 13.1055 13.6562C13.3516 13.7969 13.4922 14.0078 13.4922 14.2891C13.4922 14.5703 13.3516 14.8164 13.0703 14.9922C12.7891 15.168 12.4023 15.2383 11.9453 15.2383C11.4883 15.2383 11.1016 15.1328 10.75 14.9219C10.5391 14.8164 10.2578 14.6055 9.97656 14.2891C9.76562 14.0781 9.58984 13.9023 9.48438 13.832C9.27344 13.7266 9.09766 13.6562 8.88672 13.6562C8.53516 13.6562 8.28906 13.7617 8.11328 13.9727C7.9375 14.1836 7.86719 14.4297 7.86719 14.7109C7.86719 15.1328 8.04297 15.5195 8.42969 15.8711C8.78125 16.2227 9.30859 16.5039 9.97656 16.7148C10.6094 16.9258 11.3125 16.9961 12.0859 16.9961Z" fill="#C1C9CD"/>
</svg>