<svg width="16" height="16" viewBox="0 0 16 16" fill="none" xmlns="http://www.w3.org/2000/svg">
    <path d="M14.1875 0.175049C14.6445 0.175049 15.0312 0.35083 15.3828 0.667236C15.6992 1.0188 15.875 1.40552 15.875 1.86255V14.2375C15.875 14.7297 15.6992 15.1165 15.3828 15.4329C15.0312 15.7844 14.6445 15.925 14.1875 15.925H1.8125C1.32031 15.925 0.933594 15.7844 0.617188 15.4329C0.265625 15.1165 0.125 14.7297 0.125 14.2375V1.86255C0.125 1.40552 0.265625 1.0188 0.617188 0.667236C0.933594 0.35083 1.32031 0.175049 1.8125 0.175049H14.1875ZM6.38281 8.26099L6.59375 8.43677C7.22656 8.92896 7.71875 9.17505 8 9.17505C8.28125 9.17505 8.73828 8.92896 9.40625 8.43677L9.61719 8.26099C11.4453 6.96021 12.6758 6.04614 13.3086 5.5188L13.625 5.27271V4.3938C13.625 4.18286 13.5195 3.97192 13.3789 3.79614C13.2031 3.65552 12.9922 3.55005 12.7812 3.55005H3.21875C2.97266 3.55005 2.76172 3.65552 2.62109 3.79614C2.44531 3.97192 2.375 4.18286 2.375 4.3938V5.27271L2.69141 5.5188C3.32422 6.04614 4.55469 6.96021 6.38281 8.26099ZM13.625 6.71411C13.0977 7.13599 11.9727 7.94458 10.2852 9.17505L10.0391 9.35083C9.65234 9.63208 9.33594 9.84302 9.125 9.98364C8.70312 10.1946 8.35156 10.3 8 10.3C7.64844 10.3 7.26172 10.1946 6.875 9.98364C6.62891 9.84302 6.3125 9.63208 5.96094 9.35083L5.71484 9.17505C3.99219 7.94458 2.86719 7.13599 2.375 6.71411V11.7063C2.375 11.9524 2.44531 12.1633 2.62109 12.304C2.76172 12.4797 2.97266 12.55 3.21875 12.55H12.7812C12.9922 12.55 13.2031 12.4797 13.3789 12.304C13.5195 12.1633 13.625 11.9524 13.625 11.7063V6.71411Z" fill="#1E3143"/>
</svg>