<svg width="16" height="16" viewBox="0 0 16 16" fill="none" xmlns="http://www.w3.org/2000/svg">
    <path d="M14.1875 0.175049C14.6445 0.175049 15.0312 0.35083 15.3828 0.667236C15.6992 1.0188 15.875 1.40552 15.875 1.86255V14.2375C15.875 14.7297 15.6992 15.1165 15.3828 15.4329C15.0312 15.7844 14.6445 15.925 14.1875 15.925H1.8125C1.32031 15.925 0.933594 15.7844 0.617188 15.4329C0.265625 15.1165 0.125 14.7297 0.125 14.2375V1.86255C0.125 1.40552 0.265625 1.0188 0.617188 0.667236C0.933594 0.35083 1.32031 0.175049 1.8125 0.175049H14.1875ZM3.42969 13.675C5.25781 13.675 6.98047 13.218 8.5625 12.2688C10.1094 11.3899 11.3047 10.1594 12.2188 8.61255C13.1328 7.06567 13.625 5.34302 13.625 3.47974C13.625 3.37427 13.5547 3.2688 13.4844 3.16333C13.4141 3.09302 13.3086 3.02271 13.2031 2.95239L10.918 2.42505C10.7773 2.42505 10.6719 2.42505 10.5664 2.49536C10.4258 2.56567 10.3555 2.63599 10.3203 2.74146L9.26562 5.20239C9.19531 5.34302 9.19531 5.44849 9.23047 5.55396C9.26562 5.65942 9.33594 5.76489 9.44141 5.83521L10.7422 6.92505C10.3203 7.7688 9.79297 8.54224 9.125 9.21021C8.45703 9.87817 7.71875 10.4055 6.875 10.7922L5.78516 9.49146C5.67969 9.42114 5.57422 9.35083 5.46875 9.31567C5.36328 9.28052 5.25781 9.28052 5.15234 9.31567L2.69141 10.3704C2.55078 10.4407 2.48047 10.511 2.41016 10.6165C2.33984 10.7571 2.33984 10.8625 2.375 10.968L2.90234 13.2532C2.9375 13.3938 3.00781 13.4993 3.11328 13.5696C3.18359 13.6399 3.28906 13.675 3.42969 13.675Z" fill="#1E3143"/>
</svg>