<svg width="285" height="72" viewBox="0 0 285 72" fill="none" xmlns="http://www.w3.org/2000/svg">
    <path fill-rule="evenodd" clip-rule="evenodd" d="M0 36L27 0L54 36V67L27 71.5L0 67V36ZM49 37L27 8L5 37V42.3333L27 13L49 42.3333V37ZM5 50L27 21L49 50V55.3333L27 26L5 55.3333V50ZM49 63L27 34L5 63L27 67L49 63Z" fill="#FF9100"/>
    <rect x="23" y="48" width="8" height="3" fill="#464A4D"/>
    <path d="M23 48H27L31 51H27V48L23 51V48Z" fill="#2F3133"/>
    <rect x="18" y="53" width="8" height="3" fill="#464A4D"/>
    <path d="M18 53H22L26 56H22V53L18 56V53Z" fill="#2F3133"/>
    <rect x="13" y="58" width="8" height="3" fill="#464A4D"/>
    <path d="M13 58H17L21 61H17V58L13 61V58Z" fill="#2F3133"/>
    <rect x="23" y="58" width="8" height="3" fill="#464A4D"/>
    <rect x="33" y="58" width="8" height="3" fill="#464A4D"/>
    <rect x="28" y="53" width="8" height="3" fill="#464A4D"/>
    <path d="M28 53H32L36 56H32V53L28 56V53Z" fill="#2F3133"/>
    <path d="M23 58H27L31 61H27V58L23 61V58Z" fill="#2F3133"/>
    <path d="M33 58H37L41 61H37V58L33 61V58Z" fill="#2F3133"/>
    <path d="M27 13V21L49 50L54 54L27 13Z" fill="#FF6600"/>
    <path d="M27 0V8L49 37L54 41L27 0Z" fill="#FF6600"/>
    <path d="M27 26V34L49 63L54 67L27 26Z" fill="#FF6600"/>
    <path d="M0 54V67L27 26L5 55.3333V50L0 54Z" fill="#FF6600"/>
    <path d="M27 71.5L49 63L27 67V71.5Z" fill="#FF6600"/>
    <path d="M27 0L0 36V41L27 0Z" fill="#FF6600"/>
    <path d="M0 54L27 13L5 42.3333V37L0 41V54Z" fill="#FF6600"/>
    <path d="M0 67L27 71.5L5 63L0 67Z" fill="#FF6600"/>
    <path d="M81.1282 57H75.9856V41.0008H69.9859V37.001H87.1279V41.0008H81.1282V57ZM104.987 57H89.1311V37.001H104.987V41.0008H94.2737V44.8577H102.702V48.8575H94.2737V53.0002H104.987V57ZM124.408 57H119.266V41.0008H112.123V57H106.981V37.001H124.408V57ZM134.136 52.8573C134.04 54.2287 133.602 55.3144 132.821 56.1143C132.04 56.8952 131.079 57.2857 129.936 57.2857C128.793 57.2857 127.717 57.1905 126.707 57V53.143H127.993C128.355 53.143 128.65 53.0192 128.879 52.7716C129.126 52.524 129.26 52.2193 129.279 51.8574L130.136 37.001H145.992V57H140.85V41.0008H134.85L134.136 52.8573ZM161.652 42.4293C161.652 41.2865 161.08 40.7151 159.938 40.7151H155.081C153.938 40.7151 153.367 41.2865 153.367 42.4293V51.5717C153.367 52.7145 153.938 53.2859 155.081 53.2859H159.938C161.08 53.2859 161.652 52.7145 161.652 51.5717V42.4293ZM166.794 51.5717C166.794 53.5716 166.337 55.0287 165.423 55.9429C164.528 56.8381 163.08 57.2857 161.08 57.2857H153.938C151.938 57.2857 150.481 56.8381 149.567 55.9429C148.672 55.0287 148.224 53.5716 148.224 51.5717V42.4293C148.224 40.4294 148.672 38.9819 149.567 38.0867C150.481 37.1724 151.938 36.7153 153.938 36.7153H161.08C163.08 36.7153 164.528 37.1724 165.423 38.0867C166.337 38.9819 166.794 40.4294 166.794 42.4293V51.5717ZM169.151 37.001H181.15C183.15 37.001 184.597 37.4581 185.493 38.3724C186.407 39.2676 186.864 40.7151 186.864 42.715V45.572C186.864 47.5719 186.407 49.029 185.493 49.9432C184.597 50.8384 183.15 51.286 181.15 51.286H174.293V57H169.151V37.001ZM181.721 42.715C181.721 41.5722 181.15 41.0008 180.007 41.0008H174.293V47.2862H180.007C181.15 47.2862 181.721 46.7148 181.721 45.572V42.715ZM205.005 57H189.148V37.001H205.005V41.0008H194.291V44.8577H202.719V48.8575H194.291V53.0002H205.005V57ZM222.997 56.7143C218.75 57.0952 215.226 57.2857 212.426 57.2857C210.56 57.2857 209.188 56.8476 208.312 55.9715C207.436 55.0953 206.998 53.724 206.998 51.8574V42.715C206.998 40.7151 207.446 39.2676 208.341 38.3724C209.255 37.4581 210.712 37.001 212.712 37.001H222.997V41.0008H213.855C212.712 41.0008 212.141 41.5722 212.141 42.715V51.8574C212.141 52.2955 212.264 52.6478 212.512 52.9145C212.779 53.1621 213.112 53.2859 213.512 53.2859C213.912 53.2859 214.35 53.2859 214.826 53.2859C215.302 53.2669 215.798 53.2478 216.312 53.2288C216.826 53.2097 217.34 53.1907 217.855 53.1716C218.388 53.1526 219.064 53.1145 219.883 53.0573C220.721 53.0002 221.759 52.9335 222.997 52.8573V56.7143ZM232.086 57.2857C231.133 57.2857 230.153 57.1905 229.143 57V53.143H231.714C232.267 53.143 232.648 52.924 232.857 52.4859C232.952 52.2955 233 52.0955 233 51.886C233 51.6574 232.952 51.4574 232.857 51.286L225 37.001H230.714L235.857 47.1433L240.143 37.001H245.857L238.571 52.7145C237.905 54.2192 237.105 55.3429 236.171 56.0858C235.143 56.8857 233.781 57.2857 232.086 57.2857ZM248.154 37.001H260.154C262.154 37.001 263.601 37.4581 264.496 38.3724C265.411 39.2676 265.868 40.7151 265.868 42.715V45.572C265.868 47.5719 265.411 49.029 264.496 49.9432C263.601 50.8384 262.154 51.286 260.154 51.286H253.297V57H248.154V37.001ZM260.725 42.715C260.725 41.5722 260.154 41.0008 259.011 41.0008H253.297V47.2862H259.011C260.154 47.2862 260.725 46.7148 260.725 45.572V42.715ZM284.009 56.7143C279.761 57.0952 276.238 57.2857 273.438 57.2857C271.571 57.2857 270.2 56.8476 269.324 55.9715C268.448 55.0953 268.009 53.724 268.009 51.8574V42.715C268.009 40.7151 268.457 39.2676 269.352 38.3724C270.266 37.4581 271.724 37.001 273.723 37.001H284.009V41.0008H274.866C273.723 41.0008 273.152 41.5722 273.152 42.715V51.8574C273.152 52.2955 273.276 52.6478 273.523 52.9145C273.79 53.1621 274.123 53.2859 274.523 53.2859C274.923 53.2859 275.361 53.2859 275.838 53.2859C276.314 53.2669 276.809 53.2478 277.323 53.2288C277.838 53.2097 278.352 53.1907 278.866 53.1716C279.399 53.1526 280.076 53.1145 280.895 53.0573C281.733 53.0002 282.771 52.9335 284.009 52.8573V56.7143Z" fill="#FF9100"/>
    <path d="M79.9571 28.3136C79.9832 28.3529 79.9963 28.4248 79.9963 28.5294C79.9963 28.6601 79.9506 28.7712 79.859 28.8627C79.7806 28.9542 79.676 29 79.5453 29H78.5256C78.3033 29 78.1334 28.9019 78.0157 28.7058L74.231 22.9013H71.8386V28.549C71.8386 28.6797 71.7928 28.7908 71.7013 28.8823C71.6098 28.9608 71.4986 29 71.3679 29H70.4266C70.2959 29 70.1913 28.9608 70.1129 28.8823C70.0344 28.7908 69.9952 28.6797 69.9952 28.549V15.7436C69.9952 15.5998 70.0344 15.4887 70.1129 15.4103C70.1913 15.3188 70.2959 15.273 70.4266 15.273H71.3679C71.5117 15.273 71.6228 15.3188 71.7013 15.4103C71.7928 15.4887 71.8386 15.5998 71.8386 15.7436V21.1952L74.0937 21.2148L77.6039 15.5868C77.7477 15.3776 77.9765 15.273 78.2902 15.273H79.2707C79.4015 15.273 79.4995 15.3122 79.5649 15.3907C79.6303 15.456 79.6629 15.5475 79.6629 15.6652C79.6629 15.7306 79.6303 15.8155 79.5649 15.9201L75.7998 21.9208L79.9571 28.3136ZM87.8327 29.1961C86.1331 29.1961 84.8192 28.7516 83.891 27.8626C82.9628 26.9606 82.4726 25.6075 82.4203 23.8033C82.4072 23.4111 82.4007 22.8555 82.4007 22.1365C82.4007 21.4175 82.4072 20.8684 82.4203 20.4893C82.4726 18.7113 82.9759 17.3647 83.9303 16.4496C84.8977 15.5345 86.1985 15.0769 87.8327 15.0769C89.4668 15.0769 90.7611 15.5345 91.7154 16.4496C92.6698 17.3647 93.1731 18.7113 93.2254 20.4893C93.2515 21.2475 93.2646 21.7966 93.2646 22.1365C93.2646 22.4633 93.2515 23.0189 93.2254 23.8033C93.1731 25.6075 92.6829 26.9606 91.7547 27.8626C90.8395 28.7516 89.5322 29.1961 87.8327 29.1961ZM87.8327 27.5685C88.8785 27.5685 89.7152 27.2547 90.3427 26.6272C90.9703 25.9866 91.3102 25.0126 91.3625 23.7053C91.3886 22.9209 91.4017 22.398 91.4017 22.1365C91.4017 21.8489 91.3886 21.326 91.3625 20.5677C91.3102 19.2604 90.9703 18.2864 90.3427 17.6458C89.7152 17.0052 88.8785 16.6849 87.8327 16.6849C86.7868 16.6849 85.9436 17.0052 85.303 17.6458C84.6754 18.2864 84.3421 19.2604 84.3029 20.5677C84.2898 20.9468 84.2832 21.4698 84.2832 22.1365C84.2832 22.7902 84.2898 23.3131 84.3029 23.7053C84.3421 25.0126 84.6754 25.9866 85.303 26.6272C85.9305 27.2547 86.7737 27.5685 87.8327 27.5685ZM97.7711 29C97.6404 29 97.5358 28.9608 97.4573 28.8823C97.3789 28.7908 97.3397 28.6797 97.3397 28.549V15.7436C97.3397 15.5998 97.3789 15.4887 97.4573 15.4103C97.5358 15.3188 97.6404 15.273 97.7711 15.273H103.125C104.51 15.273 105.556 15.6064 106.262 16.2731C106.968 16.9398 107.321 17.8092 107.321 18.8812C107.321 19.6133 107.151 20.2278 106.811 20.7246C106.471 21.2083 106.073 21.5613 105.615 21.7835C106.177 22.0581 106.648 22.4829 107.027 23.0582C107.406 23.6334 107.596 24.2936 107.596 25.0388C107.596 25.7709 107.426 26.4376 107.086 27.039C106.759 27.6404 106.269 28.1175 105.615 28.4705C104.961 28.8235 104.184 29 103.282 29H97.7711ZM102.83 21.0972C103.68 21.0972 104.327 20.9076 104.772 20.5285C105.216 20.1363 105.439 19.5937 105.439 18.9008C105.439 18.221 105.216 17.7046 104.772 17.3517C104.34 16.9987 103.693 16.8222 102.83 16.8222H99.183V21.0972H102.83ZM103.027 27.4508C103.863 27.4508 104.517 27.2286 104.988 26.7841C105.471 26.3265 105.713 25.7447 105.713 25.0388C105.713 24.3197 105.471 23.738 104.988 23.2935C104.517 22.849 103.863 22.6267 103.027 22.6267H99.183V27.4508H103.027ZM112.027 29C111.897 29 111.792 28.9608 111.714 28.8823C111.635 28.7908 111.596 28.6797 111.596 28.549V15.7436C111.596 15.5998 111.635 15.4887 111.714 15.4103C111.792 15.3188 111.897 15.273 112.027 15.273H116.989C118.466 15.273 119.623 15.6325 120.46 16.3515C121.309 17.0575 121.734 18.0903 121.734 19.4499C121.734 20.8096 121.309 21.8423 120.46 22.5483C119.623 23.2543 118.466 23.6072 116.989 23.6072H113.459V28.549C113.459 28.6797 113.413 28.7908 113.322 28.8823C113.243 28.9608 113.139 29 113.008 29H112.027ZM116.891 22.0188C118.865 22.0188 119.852 21.1625 119.852 19.4499C119.852 18.6132 119.603 17.9726 119.107 17.5281C118.623 17.0837 117.884 16.8614 116.891 16.8614H113.459V22.0188H116.891ZM130.238 29.1961C128.538 29.1961 127.224 28.7516 126.296 27.8626C125.368 26.9606 124.878 25.6075 124.825 23.8033C124.812 23.4111 124.806 22.8555 124.806 22.1365C124.806 21.4175 124.812 20.8684 124.825 20.4893C124.878 18.7113 125.381 17.3647 126.335 16.4496C127.303 15.5345 128.604 15.0769 130.238 15.0769C131.872 15.0769 133.166 15.5345 134.121 16.4496C135.075 17.3647 135.578 18.7113 135.63 20.4893C135.657 21.2475 135.67 21.7966 135.67 22.1365C135.67 22.4633 135.657 23.0189 135.63 23.8033C135.578 25.6075 135.088 26.9606 134.16 27.8626C133.245 28.7516 131.937 29.1961 130.238 29.1961ZM130.238 27.5685C131.284 27.5685 132.12 27.2547 132.748 26.6272C133.375 25.9866 133.715 25.0126 133.768 23.7053C133.794 22.9209 133.807 22.398 133.807 22.1365C133.807 21.8489 133.794 21.326 133.768 20.5677C133.715 19.2604 133.375 18.2864 132.748 17.6458C132.12 17.0052 131.284 16.6849 130.238 16.6849C129.192 16.6849 128.349 17.0052 127.708 17.6458C127.081 18.2864 126.747 19.2604 126.708 20.5677C126.695 20.9468 126.688 21.4698 126.688 22.1365C126.688 22.7902 126.695 23.3131 126.708 23.7053C126.747 25.0126 127.081 25.9866 127.708 26.6272C128.336 27.2547 129.179 27.5685 130.238 27.5685ZM140.176 29C140.045 29 139.941 28.9608 139.862 28.8823C139.784 28.7908 139.745 28.6797 139.745 28.549V15.7436C139.745 15.5998 139.784 15.4887 139.862 15.4103C139.941 15.3188 140.045 15.273 140.176 15.273H145.53C146.915 15.273 147.961 15.6064 148.667 16.2731C149.373 16.9398 149.726 17.8092 149.726 18.8812C149.726 19.6133 149.556 20.2278 149.216 20.7246C148.876 21.2083 148.478 21.5613 148.02 21.7835C148.582 22.0581 149.053 22.4829 149.432 23.0582C149.811 23.6334 150.001 24.2936 150.001 25.0388C150.001 25.7709 149.831 26.4376 149.491 27.039C149.164 27.6404 148.674 28.1175 148.02 28.4705C147.367 28.8235 146.589 29 145.687 29H140.176ZM145.236 21.0972C146.085 21.0972 146.732 20.9076 147.177 20.5285C147.621 20.1363 147.844 19.5937 147.844 18.9008C147.844 18.221 147.621 17.7046 147.177 17.3517C146.746 16.9987 146.098 16.8222 145.236 16.8222H141.588V21.0972H145.236ZM145.432 27.4508C146.268 27.4508 146.922 27.2286 147.393 26.7841C147.876 26.3265 148.118 25.7447 148.118 25.0388C148.118 24.3197 147.876 23.738 147.393 23.2935C146.922 22.849 146.268 22.6267 145.432 22.6267H141.588V27.4508H145.432ZM158.904 29.1961C157.165 29.1961 155.838 28.7255 154.923 27.7842C154.021 26.8298 153.537 25.529 153.472 23.8818C153.459 23.5288 153.452 22.9536 153.452 22.1561C153.452 21.3456 153.459 20.7573 153.472 20.3912C153.537 18.744 154.021 17.4497 154.923 16.5084C155.838 15.5541 157.165 15.0769 158.904 15.0769C160.067 15.0769 161.054 15.2861 161.865 15.7044C162.675 16.1097 163.283 16.6457 163.688 17.3124C164.107 17.9792 164.336 18.6917 164.375 19.4499C164.375 19.5676 164.329 19.6656 164.238 19.7441C164.159 19.8094 164.061 19.8421 163.943 19.8421H162.963C162.832 19.8421 162.728 19.8094 162.649 19.7441C162.571 19.6787 162.512 19.5676 162.473 19.4107C162.25 18.4041 161.845 17.6981 161.257 17.2928C160.682 16.8876 159.897 16.6849 158.904 16.6849C156.629 16.6849 155.446 17.953 155.354 20.4893C155.341 20.8422 155.335 21.3848 155.335 22.1169C155.335 22.849 155.341 23.4046 155.354 23.7837C155.446 26.3069 156.629 27.5685 158.904 27.5685C159.884 27.5685 160.668 27.3658 161.257 26.9606C161.845 26.5553 162.25 25.8559 162.473 24.8623C162.512 24.7054 162.571 24.5943 162.649 24.5289C162.728 24.4636 162.832 24.4309 162.963 24.4309H163.943C164.061 24.4309 164.159 24.4701 164.238 24.5485C164.329 24.6139 164.375 24.7054 164.375 24.8231C164.336 25.5813 164.107 26.2938 163.688 26.9606C163.283 27.6273 162.675 28.1698 161.865 28.5882C161.054 28.9935 160.067 29.1961 158.904 29.1961ZM178.181 28.3136C178.207 28.3529 178.22 28.4248 178.22 28.5294C178.22 28.6601 178.174 28.7712 178.083 28.8627C178.004 28.9542 177.9 29 177.769 29H176.749C176.527 29 176.357 28.9019 176.24 28.7058L172.455 22.9013H170.062V28.549C170.062 28.6797 170.017 28.7908 169.925 28.8823C169.834 28.9608 169.723 29 169.592 29H168.651C168.52 29 168.415 28.9608 168.337 28.8823C168.258 28.7908 168.219 28.6797 168.219 28.549V15.7436C168.219 15.5998 168.258 15.4887 168.337 15.4103C168.415 15.3188 168.52 15.273 168.651 15.273H169.592C169.736 15.273 169.847 15.3188 169.925 15.4103C170.017 15.4887 170.062 15.5998 170.062 15.7436V21.1952L172.318 21.2148L175.828 15.5868C175.972 15.3776 176.2 15.273 176.514 15.273H177.495C177.625 15.273 177.723 15.3122 177.789 15.3907C177.854 15.456 177.887 15.5475 177.887 15.6652C177.887 15.7306 177.854 15.8155 177.789 15.9201L174.024 21.9208L178.181 28.3136ZM182.313 29C182.182 29 182.078 28.9608 181.999 28.8823C181.921 28.7908 181.882 28.6732 181.882 28.5294V15.7436C181.882 15.5998 181.921 15.4887 181.999 15.4103C182.078 15.3188 182.189 15.273 182.333 15.273H183.274C183.405 15.273 183.509 15.3188 183.588 15.4103C183.679 15.4887 183.725 15.5998 183.725 15.7436V25.9997L191.118 15.5475C191.223 15.3645 191.38 15.273 191.589 15.273H192.51C192.641 15.273 192.746 15.3188 192.824 15.4103C192.916 15.4887 192.961 15.5998 192.961 15.7436V28.549C192.961 28.6797 192.916 28.7908 192.824 28.8823C192.746 28.9608 192.641 29 192.51 29H191.569C191.438 29 191.327 28.9608 191.236 28.8823C191.144 28.7908 191.098 28.6797 191.098 28.549V18.391L183.725 28.7255C183.621 28.9085 183.464 29 183.254 29H182.313ZM198.006 29C197.875 29 197.77 28.9608 197.692 28.8823C197.614 28.7908 197.574 28.6797 197.574 28.549V15.7436C197.574 15.5998 197.614 15.4887 197.692 15.4103C197.77 15.3188 197.875 15.273 198.006 15.273H206.065C206.209 15.273 206.32 15.3188 206.399 15.4103C206.49 15.4887 206.536 15.5998 206.536 15.7436V16.4496C206.536 16.5803 206.49 16.6849 206.399 16.7634C206.32 16.8418 206.209 16.881 206.065 16.881H199.378V21.254H205.634C205.778 21.254 205.889 21.2998 205.967 21.3913C206.059 21.4698 206.105 21.5809 206.105 21.7247V22.3914C206.105 22.5222 206.059 22.6333 205.967 22.7248C205.889 22.8032 205.778 22.8425 205.634 22.8425H199.378V27.3724H206.222C206.366 27.3724 206.477 27.4181 206.556 27.5096C206.647 27.5881 206.693 27.6992 206.693 27.843V28.549C206.693 28.6797 206.647 28.7908 206.556 28.8823C206.464 28.9608 206.353 29 206.222 29H198.006ZM226.589 28.3136C226.615 28.3529 226.628 28.4248 226.628 28.5294C226.628 28.6601 226.582 28.7712 226.491 28.8627C226.412 28.9542 226.308 29 226.177 29H225.157C224.935 29 224.765 28.9019 224.647 28.7058L220.862 22.9013H218.47V28.549C218.47 28.6797 218.424 28.7908 218.333 28.8823C218.241 28.9608 218.13 29 217.999 29H217.058C216.927 29 216.823 28.9608 216.744 28.8823C216.666 28.7908 216.627 28.6797 216.627 28.549V15.7436C216.627 15.5998 216.666 15.4887 216.744 15.4103C216.823 15.3188 216.927 15.273 217.058 15.273H217.999C218.143 15.273 218.254 15.3188 218.333 15.4103C218.424 15.4887 218.47 15.5998 218.47 15.7436V21.1952L220.725 21.2148L224.235 15.5868C224.379 15.3776 224.608 15.273 224.922 15.273H225.902C226.033 15.273 226.131 15.3122 226.196 15.3907C226.262 15.456 226.294 15.5475 226.294 15.6652C226.294 15.7306 226.262 15.8155 226.196 15.9201L222.431 21.9208L226.589 28.3136ZM234.464 29.1961C232.765 29.1961 231.451 28.7516 230.523 27.8626C229.594 26.9606 229.104 25.6075 229.052 23.8033C229.039 23.4111 229.032 22.8555 229.032 22.1365C229.032 21.4175 229.039 20.8684 229.052 20.4893C229.104 18.7113 229.607 17.3647 230.562 16.4496C231.529 15.5345 232.83 15.0769 234.464 15.0769C236.098 15.0769 237.393 15.5345 238.347 16.4496C239.301 17.3647 239.805 18.7113 239.857 20.4893C239.883 21.2475 239.896 21.7966 239.896 22.1365C239.896 22.4633 239.883 23.0189 239.857 23.8033C239.805 25.6075 239.314 26.9606 238.386 27.8626C237.471 28.7516 236.164 29.1961 234.464 29.1961ZM234.464 27.5685C235.51 27.5685 236.347 27.2547 236.974 26.6272C237.602 25.9866 237.942 25.0126 237.994 23.7053C238.02 22.9209 238.033 22.398 238.033 22.1365C238.033 21.8489 238.02 21.326 237.994 20.5677C237.942 19.2604 237.602 18.2864 236.974 17.6458C236.347 17.0052 235.51 16.6849 234.464 16.6849C233.418 16.6849 232.575 17.0052 231.934 17.6458C231.307 18.2864 230.974 19.2604 230.934 20.5677C230.921 20.9468 230.915 21.4698 230.915 22.1365C230.915 22.7902 230.921 23.3131 230.934 23.7053C230.974 25.0126 231.307 25.9866 231.934 26.6272C232.562 27.2547 233.405 27.5685 234.464 27.5685ZM247.423 29C247.292 29 247.181 28.9608 247.089 28.8823C247.011 28.7908 246.971 28.6797 246.971 28.549V16.9595H243.187C243.056 16.9595 242.945 16.9202 242.853 16.8418C242.775 16.7503 242.736 16.6392 242.736 16.5084V15.7436C242.736 15.5998 242.775 15.4887 242.853 15.4103C242.945 15.3188 243.056 15.273 243.187 15.273H252.6C252.743 15.273 252.854 15.3188 252.933 15.4103C253.011 15.4887 253.051 15.5998 253.051 15.7436V16.5084C253.051 16.6392 253.005 16.7503 252.913 16.8418C252.835 16.9202 252.73 16.9595 252.6 16.9595H248.834V28.549C248.834 28.6797 248.789 28.7908 248.697 28.8823C248.606 28.9608 248.495 29 248.364 29H247.423ZM265.388 29C265.257 29 265.153 28.9608 265.074 28.8823C264.996 28.7908 264.957 28.6797 264.957 28.549V16.9791H260.015V20.1951C260.015 22.2999 259.865 23.9798 259.564 25.2349C259.263 26.4899 258.793 27.4116 258.152 27.9999C257.525 28.5882 256.688 28.915 255.642 28.9804C255.511 28.9935 255.4 28.9542 255.309 28.8627C255.23 28.7712 255.191 28.6536 255.191 28.5097V27.7057C255.191 27.5881 255.224 27.49 255.289 27.4116C255.367 27.3201 255.472 27.2678 255.603 27.2547C256.453 27.137 257.1 26.5095 257.544 25.3721C257.989 24.2217 258.211 22.4176 258.211 19.9598V15.724C258.211 15.5802 258.25 15.4691 258.329 15.3907C258.42 15.3122 258.531 15.273 258.662 15.273H266.329C266.473 15.273 266.584 15.3188 266.663 15.4103C266.754 15.4887 266.8 15.5998 266.8 15.7436V28.549C266.8 28.6797 266.754 28.7908 266.663 28.8823C266.571 28.9608 266.46 29 266.329 29H265.388ZM271.843 29C271.712 29 271.607 28.9608 271.529 28.8823C271.451 28.7908 271.411 28.6797 271.411 28.549V15.724C271.411 15.5933 271.451 15.4887 271.529 15.4103C271.607 15.3188 271.712 15.273 271.843 15.273H272.784C272.928 15.273 273.039 15.3188 273.117 15.4103C273.209 15.4887 273.255 15.5933 273.255 15.724V20.5089H275.804C277.229 20.5089 278.321 20.8684 279.079 21.5874C279.85 22.3065 280.236 23.3458 280.236 24.7054C280.236 25.4637 280.066 26.1696 279.726 26.8233C279.399 27.477 278.902 28.0064 278.236 28.4117C277.569 28.8039 276.758 29 275.804 29H271.843ZM282.569 29C282.439 29 282.334 28.9608 282.256 28.8823C282.177 28.7908 282.138 28.6797 282.138 28.549V15.724C282.138 15.5933 282.177 15.4887 282.256 15.4103C282.334 15.3188 282.439 15.273 282.569 15.273H283.55C283.694 15.273 283.805 15.3122 283.883 15.3907C283.962 15.4691 284.001 15.5802 284.001 15.724V28.549C284.001 28.6797 283.955 28.7908 283.864 28.8823C283.785 28.9608 283.681 29 283.55 29H282.569ZM275.628 27.4116C276.477 27.4116 277.144 27.1632 277.628 26.6664C278.111 26.1696 278.353 25.5029 278.353 24.6662C278.353 22.9536 277.445 22.0973 275.628 22.0973H273.255V27.4116H275.628Z" fill="#464A4D"/>
</svg>